<svg xmlns="http://www.w3.org/2000/svg" viewBox="0 0 512 512" width="512" height="512">
  <rect width="512" height="512" rx="64" ry="64" fill="#000"/>
  <path d="M366.6,113.0 L383.4,113.0 L395.9,121.9 L404.3,139.6 L408.5,166.2 L408.5,201.8 L404.3,228.4 L396.0,246.2 L383.6,255.2 L366.9,255.3 L354.4,252.8 L346.1,247.5 L341.8,239.6 L341.7,228.9 L341.5,220.9 L341.2,215.4 L340.9,212.4 L340.6,212.1 L339.3,214.4 L337.3,219.5 L334.4,227.2 L330.6,237.8 L326.6,246.0 L322.2,252.0 L317.5,255.8 L312.5,257.2 L307.7,258.4 L303.1,259.1 L298.6,259.5 L294.4,259.5 L290.1,259.2 L285.9,258.6 L281.6,257.6 L277.4,256.4 L273.5,254.9 L270.1,253.2 L267.1,251.3 L264.4,249.2 L262.0,246.7 L259.8,243.9 L257.9,240.8 L256.1,237.2 L254.8,227.8 L253.9,212.4 L253.5,191.1 L253.5,163.9 L257.7,143.4 L266.1,129.8 L278.6,123.0 L295.4,123.0 L307.9,127.8 L316.3,137.4 L320.5,151.9 L320.5,171.1 L320.8,186.0 L321.5,196.6 L322.6,202.8 L323.9,204.7 L325.5,206.2 L327.2,207.2 L329.0,207.9 L331.0,208.1 L333.0,208.0 L334.9,207.6 L336.8,206.8 L338.7,205.7 L340.1,199.2 L341.0,187.2 L341.5,169.9 L341.5,147.1 L341.5,130.1 L341.5,118.7 L341.5,113.0 L341.5,113.0 L345.7,113.0 L354.1,113.0 Z M187.2,129.9 L196.3,130.6 L204.2,131.3 L210.9,132.1 L216.4,133.0 L220.6,134.0 L224.7,135.1 L228.5,136.3 L232.1,137.6 L235.4,138.9 L237.9,142.8 L239.6,149.0 L240.3,157.7 L240.2,168.8 L239.2,176.7 L237.2,181.4 L234.4,182.9 L230.6,181.1 L226.4,179.5 L221.6,178.0 L216.4,176.6 L210.6,175.4 L204.9,174.4 L199.1,173.8 L193.4,173.5 L187.6,173.5 L182.8,173.6 L178.9,173.9 L176.0,174.2 L174.0,174.8 L172.3,175.4 L171.0,176.2 L170.1,177.2 L169.4,178.3 L169.2,179.3 L169.3,180.2 L169.8,180.9 L170.7,181.6 L173.9,182.1 L179.5,182.5 L187.4,182.9 L197.6,183.1 L206.2,183.6 L213.2,184.2 L218.6,185.0 L222.4,186.0 L225.6,187.0 L228.4,188.0 L230.6,189.0 L232.4,190.0 L234.2,191.3 L236.2,193.0 L238.2,195.1 L240.3,197.4 L242.1,199.7 L243.5,201.7 L244.6,203.6 L245.4,205.4 L245.9,207.8 L246.3,210.8 L246.5,214.4 L246.5,218.6 L246.4,222.2 L246.1,225.2 L245.8,227.6 L245.2,229.4 L244.4,231.3 L243.2,233.3 L241.7,235.6 L239.8,237.9 L237.2,240.5 L233.9,243.2 L229.9,246.0 L225.1,249.0 L219.6,251.7 L213.4,254.1 L206.4,256.1 L198.6,257.9 L190.1,259.1 L180.9,259.9 L170.9,260.1 L160.1,259.9 L150.6,259.4 L142.2,258.6 L135.0,257.6 L129.0,256.4 L123.6,255.1 L118.7,253.7 L114.4,252.2 L110.6,250.8 L107.7,249.5 L105.7,248.4 L104.4,247.6 L104.1,246.9 L103.8,243.8 L103.6,238.1 L103.5,229.9 L103.5,219.1 L103.6,211.0 L103.8,205.4 L104.1,202.4 L104.4,202.1 L105.4,202.2 L107.0,202.9 L109.1,204.1 L111.9,205.9 L115.9,207.6 L121.1,209.4 L127.6,211.1 L135.4,212.9 L142.5,214.2 L149.0,215.1 L154.9,215.5 L160.1,215.5 L164.6,215.3 L168.4,214.9 L171.4,214.4 L173.6,213.6 L175.4,212.8 L176.7,211.8 L177.6,210.8 L177.9,209.7 L178.1,208.8 L177.9,208.0 L177.6,207.4 L176.9,207.1 L174.5,206.8 L170.3,206.6 L164.4,206.5 L156.6,206.5 L149.9,206.4 L144.1,206.1 L139.4,205.8 L135.6,205.2 L131.8,204.5 L127.9,203.5 L124.0,202.2 L120.0,200.8 L116.5,199.2 L113.4,197.5 L110.8,195.7 L108.7,193.8 L106.8,191.7 L105.1,189.4 L103.6,186.9 L102.4,184.1 L101.4,181.1 L100.8,177.9 L100.5,174.4 L100.5,170.6 L100.7,167.4 L101.1,164.6 L101.6,162.4 L102.4,160.6 L103.5,158.6 L105.1,156.3 L107.1,153.7 L109.4,150.8 L112.6,147.9 L116.5,145.0 L121.2,142.0 L126.8,139.0 L132.4,136.4 L138.1,134.3 L144.0,132.6 L150.0,131.4 L155.4,130.4 L160.2,129.7 L164.4,129.3 L168.1,129.2 L170.8,129.1 L172.6,129.0 L173.5,129.0 L173.5,129.0 L175.8,129.2 L180.3,129.5 Z M333.6,268.2 L340.9,268.3 L347.8,268.7 L354.1,269.4 L359.9,270.4 L365.1,271.6 L370.3,273.2 L375.4,275.1 L380.5,277.2 L385.5,279.8 L390.2,282.7 L394.7,286.0 L398.8,289.7 L402.7,293.8 L406.1,298.2 L409.0,302.7 L411.5,307.5 L413.5,312.5 L415.1,317.2 L416.2,321.6 L416.9,325.6 L417.1,329.4 L417.2,332.3 L417.2,334.3 L416.9,335.6 L416.6,335.9 L412.7,336.2 L405.3,336.5 L394.4,336.7 L380.1,336.8 L369.7,337.1 L363.3,337.6 L360.9,338.3 L362.6,339.2 L366.7,340.7 L373.4,342.9 L382.6,345.8 L394.4,349.2 L403.4,352.0 L409.7,354.1 L413.3,355.4 L414.2,356.1 L414.5,357.2 L414.3,358.9 L413.6,361.1 L412.4,363.9 L410.6,366.8 L408.3,369.8 L405.4,373.1 L402.1,376.4 L399.0,379.3 L396.2,381.8 L393.6,383.8 L391.4,385.2 L388.9,386.8 L386.1,388.2 L383.1,389.8 L379.9,391.2 L375.8,392.8 L370.9,394.2 L365.2,395.8 L358.8,397.2 L351.6,398.4 L343.7,399.1 L335.1,399.5 L325.9,399.5 L317.5,399.2 L310.0,398.6 L303.4,397.6 L297.6,396.4 L291.9,394.8 L286.1,392.8 L280.4,390.4 L274.6,387.6 L269.2,384.4 L264.2,380.7 L259.4,376.6 L255.1,371.9 L251.4,367.6 L248.5,363.5 L246.2,359.8 L244.8,356.2 L243.5,352.1 L242.5,347.2 L241.8,341.6 L241.2,335.4 L241.2,329.6 L241.6,324.2 L242.4,319.2 L243.6,314.8 L245.1,310.6 L246.7,306.9 L248.5,303.5 L250.5,300.5 L252.8,297.5 L255.3,294.6 L258.2,291.7 L261.3,288.8 L264.5,286.2 L267.8,283.7 L271.2,281.5 L274.8,279.5 L278.6,277.6 L282.7,275.9 L287.1,274.2 L291.9,272.8 L296.9,271.5 L302.2,270.4 L307.8,269.6 L313.7,268.9 L318.1,268.5 L321.0,268.2 L322.5,268.0 L322.5,268.0 L324.3,268.0 L328.0,268.1 Z M221.1,271.8 L225.4,271.7 L229.4,271.9 L232.9,272.4 L235.9,273.2 L238.6,274.3 L239.7,279.6 L239.2,289.0 L237.2,302.6 L233.8,320.4 L230.9,333.7 L228.7,342.7 L227.2,347.2 L226.3,347.3 L224.8,347.0 L222.6,346.3 L219.8,345.2 L216.2,343.8 L212.3,342.6 L207.9,341.9 L203.1,341.5 L197.9,341.5 L193.1,341.8 L188.9,342.4 L185.1,343.4 L181.9,344.6 L179.2,345.8 L177.2,346.8 L175.7,347.8 L174.8,348.7 L174.2,352.2 L173.7,358.2 L173.5,366.9 L173.5,378.1 L173.4,386.7 L173.2,392.5 L172.9,395.6 L172.6,395.9 L168.1,396.2 L159.5,396.4 L146.9,396.5 L130.1,396.5 L117.5,389.0 L109.1,374.1 L104.8,351.7 L104.7,321.8 L104.7,299.3 L104.8,284.2 L105.1,276.4 L105.4,276.1 L109.8,275.8 L118.3,275.6 L130.8,275.5 L147.2,275.5 L159.7,275.6 L168.2,275.8 L172.6,276.1 L172.9,276.4 L173.2,280.7 L173.4,288.7 L173.5,300.6 L173.5,316.4 L173.6,328.3 L173.8,336.3 L174.1,340.6 L174.4,340.9 L175.2,338.6 L176.5,333.6 L178.2,325.9 L180.3,315.6 L182.2,307.0 L183.9,300.2 L185.4,295.1 L186.6,291.9 L188.1,288.9 L189.8,286.2 L191.7,283.8 L193.8,281.7 L196.5,279.7 L199.8,277.8 L203.6,276.1 L207.9,274.4 L211.2,273.2 L213.4,272.4 L214.5,272.0 L214.5,272.0 L215.6,272.0 L217.8,271.9 Z M335.7,317.9 L339.8,318.6 L343.3,319.4 L346.2,320.4 L348.4,321.6 L350.1,322.9 L351.3,324.2 L352.3,325.4 L352.9,326.5 L353.1,327.5 L353.2,328.3 L353.2,329.0 L352.9,329.6 L352.6,329.9 L349.7,330.2 L344.4,330.4 L336.6,330.5 L326.4,330.5 L318.5,330.3 L313.1,329.8 L310.1,329.2 L309.4,328.3 L309.3,327.2 L309.7,326.0 L310.6,324.6 L311.9,322.9 L313.9,321.5 L316.6,320.2 L319.8,319.2 L323.7,318.3 L326.6,317.7 L328.5,317.2 L329.5,317.0 L329.5,317.0 L330.5,317.2 L332.6,317.5 Z M324.8,336.8 L335.7,336.7 L343.9,336.8 L349.6,337.0 L352.6,337.4 L352.9,338.1 L353.1,338.8 L353.0,339.6 L352.8,340.5 L352.2,341.5 L351.4,342.6 L350.2,343.8 L348.7,345.1 L346.8,346.4 L344.4,347.6 L341.5,348.5 L338.0,349.2 L334.0,349.8 L330.1,349.9 L326.4,349.6 L322.8,349.0 L319.2,348.0 L316.3,347.0 L314.0,345.9 L312.3,344.8 L311.2,343.7 L310.3,342.5 L309.6,341.3 L309.1,340.1 L308.9,338.9 L308.7,337.9 L308.6,337.3 L308.5,337.0 L308.5,337.0 L311.2,337.0 L316.7,336.9 Z" fill="#fff" fill-rule="evenodd"/>
</svg>